<svg width="20" height="20" viewBox="0 0 20 20" fill="none" xmlns="http://www.w3.org/2000/svg">
<path d="M14.1568 1.66553H5.82928C3.5297 1.66553 1.66553 3.5297 1.66553 5.82928V14.1568C1.66553 16.4564 3.5297 18.3205 5.82928 18.3205H14.1568C16.4564 18.3205 18.3205 16.4564 18.3205 14.1568V5.82928C18.3205 3.5297 16.4564 1.66553 14.1568 1.66553Z" stroke="white" stroke-width="1.6655" stroke-linecap="round" stroke-linejoin="round"/>
<path d="M13.324 9.46838C13.4267 10.1614 13.3084 10.8692 12.9857 11.4911C12.663 12.113 12.1524 12.6173 11.5266 12.9323C10.9008 13.2473 10.1915 13.357 9.49981 13.2457C8.80807 13.1344 8.16905 12.8078 7.67363 12.3124C7.17821 11.8169 6.85162 11.1779 6.74031 10.4862C6.629 9.79444 6.73864 9.08522 7.05364 8.4594C7.36863 7.83357 7.87295 7.323 8.49484 7.00031C9.11674 6.67762 9.82455 6.55924 10.5176 6.66201C11.2245 6.76684 11.879 7.09626 12.3844 7.60161C12.8897 8.10696 13.2191 8.76144 13.324 9.46838Z" stroke="white" stroke-width="1.6655" stroke-linecap="round" stroke-linejoin="round"/>
<path d="M14.5731 5.41309H14.5814" stroke="white" stroke-width="1.6655" stroke-linecap="round" stroke-linejoin="round"/>
</svg>
