<svg width="9" height="9" viewBox="0 0 9 9" fill="none" xmlns="http://www.w3.org/2000/svg">
<path d="M7.45874 3.67492C7.56151 4.36797 7.44313 5.07579 7.12044 5.69768C6.79775 6.31958 6.28718 6.82389 5.66135 7.13889C5.03552 7.45389 4.3263 7.56353 3.63457 7.45222C2.94284 7.34091 2.30382 7.01432 1.80839 6.5189C1.31297 6.02347 0.986381 5.38445 0.875072 4.69272C0.763763 4.00099 0.873405 3.29177 1.1884 2.66594C1.5034 2.04011 2.00771 1.52954 2.62961 1.20685C3.2515 0.88416 3.95932 0.765782 4.65237 0.868553C5.35931 0.973383 6.01379 1.3028 6.51914 1.80815C7.02449 2.3135 7.35391 2.96798 7.45874 3.67492Z" stroke="white" stroke-width="1.6655" stroke-linecap="round" stroke-linejoin="round"/>
</svg>
