<svg width="19" height="14" viewBox="0 0 19 14" fill="none" xmlns="http://www.w3.org/2000/svg">
<path d="M1.26907 10.8808C0.687329 8.13546 0.687329 5.29867 1.26907 2.55332C1.34551 2.27452 1.49319 2.02042 1.69761 1.81601C1.90202 1.61159 2.15612 1.46391 2.43492 1.38747C6.90133 0.647536 11.4591 0.647536 15.9255 1.38747C16.2043 1.46391 16.4584 1.61159 16.6628 1.81601C16.8672 2.02042 17.0149 2.27452 17.0913 2.55332C17.6731 5.29867 17.6731 8.13546 17.0913 10.8808C17.0149 11.1596 16.8672 11.4137 16.6628 11.6181C16.4584 11.8225 16.2043 11.9702 15.9255 12.0467C11.4591 12.7868 6.90132 12.7868 2.43492 12.0467C2.15612 11.9702 1.90202 11.8225 1.69761 11.6181C1.49319 11.4137 1.34551 11.1596 1.26907 10.8808Z" stroke="white" stroke-width="1.6655" stroke-linecap="round" stroke-linejoin="round"/>
</svg>
