<svg width="20" height="20" viewBox="0 0 20 20" fill="none" xmlns="http://www.w3.org/2000/svg">
<path d="M2.08193 14.1567C1.50019 11.4113 1.50019 8.57455 2.08193 5.8292C2.15837 5.5504 2.30606 5.2963 2.51047 5.09189C2.71489 4.88747 2.96899 4.73978 3.24778 4.66335C7.7142 3.92342 12.2719 3.92342 16.7383 4.66335C17.0171 4.73978 17.2712 4.88747 17.4756 5.09189C17.6801 5.2963 17.8277 5.5504 17.9042 5.8292C18.4859 8.57455 18.4859 11.4113 17.9042 14.1567C17.8277 14.4355 17.6801 14.6896 17.4756 14.894C17.2712 15.0984 17.0171 15.2461 16.7383 15.3225C12.2719 16.0626 7.71418 16.0626 3.24778 15.3225C2.96899 15.2461 2.71489 15.0984 2.51047 14.894C2.30606 14.6896 2.15837 14.4355 2.08193 14.1567Z" stroke="white" stroke-width="1.6655" stroke-linecap="round" stroke-linejoin="round"/>
<path d="M8.32751 12.4911L12.4913 9.99288L8.32751 7.49463V12.4911Z" stroke="white" stroke-width="1.6655" stroke-linecap="round" stroke-linejoin="round"/>
</svg>
