<svg width="24" height="24" viewBox="0 0 24 24" fill="none" xmlns="http://www.w3.org/2000/svg">
<path d="M5.99876 1.99957L2.99939 5.99874V19.9958C2.99939 20.5261 3.21006 21.0347 3.58505 21.4097C3.96005 21.7847 4.46865 21.9954 4.99897 21.9954H18.9961C19.5264 21.9954 20.035 21.7847 20.41 21.4097C20.785 21.0347 20.9956 20.5261 20.9956 19.9958V5.99874L17.9963 1.99957H5.99876Z" stroke="white" stroke-width="1.99958" stroke-linecap="round" stroke-linejoin="round"/>
<path d="M2.99939 5.99878H20.9956" stroke="white" stroke-width="1.99958" stroke-linecap="round" stroke-linejoin="round"/>
<path d="M15.9967 9.99792C15.9967 11.0586 15.5753 12.0758 14.8253 12.8258C14.0753 13.5758 13.0581 13.9971 11.9975 13.9971C10.9368 13.9971 9.91964 13.5758 9.16965 12.8258C8.41966 12.0758 7.99832 11.0586 7.99832 9.99792" stroke="white" stroke-width="1.99958" stroke-linecap="round" stroke-linejoin="round"/>
</svg>
