<svg width="20" height="20" viewBox="0 0 20 20" fill="none" xmlns="http://www.w3.org/2000/svg">
<path d="M16.655 10.8257C16.655 14.9894 13.7404 17.0713 10.2761 18.2788C10.0947 18.3402 9.89768 18.3373 9.71819 18.2704C6.24562 17.0713 3.33099 14.9894 3.33099 10.8257V4.99641C3.33099 4.77555 3.41873 4.56374 3.5749 4.40757C3.73107 4.2514 3.94288 4.16366 4.16374 4.16366C5.82924 4.16366 7.91112 3.16436 9.3601 1.89858C9.53653 1.74785 9.76095 1.66504 9.99299 1.66504C10.225 1.66504 10.4495 1.74785 10.6259 1.89858C12.0832 3.17269 14.1567 4.16366 15.8222 4.16366C16.0431 4.16366 16.2549 4.2514 16.4111 4.40757C16.5673 4.56374 16.655 4.77555 16.655 4.99641V10.8257Z" stroke="white" stroke-width="1.6655" stroke-linecap="round" stroke-linejoin="round"/>
</svg>
