<svg width="15" height="19" viewBox="0 0 15 19" fill="none" xmlns="http://www.w3.org/2000/svg">
<path d="M14.1568 9.99339C14.1568 14.1571 11.2421 16.239 7.7779 17.4465C7.59649 17.508 7.39945 17.505 7.21996 17.4382C3.74739 16.239 0.832764 14.1571 0.832764 9.99339V4.16414C0.832764 3.94328 0.9205 3.73147 1.07667 3.5753C1.23284 3.41912 1.44465 3.33139 1.66551 3.33139C3.33101 3.33139 5.41289 2.33209 6.86187 1.06631C7.0383 0.915579 7.26272 0.832764 7.49476 0.832764C7.72681 0.832764 7.95123 0.915579 8.12765 1.06631C9.58497 2.34042 11.6585 3.33139 13.324 3.33139C13.5449 3.33139 13.7567 3.41912 13.9129 3.5753C14.069 3.73147 14.1568 3.94328 14.1568 4.16414V9.99339Z" stroke="white" stroke-width="1.6655" stroke-linecap="round" stroke-linejoin="round"/>
</svg>
