<svg width="30" height="37" viewBox="0 0 30 37" fill="none" xmlns="http://www.w3.org/2000/svg">
<path d="M28.3134 19.9867C28.3134 28.3142 22.4842 32.478 15.5557 34.8929C15.1929 35.0159 14.7988 35.01 14.4398 34.8763C7.4947 32.478 1.66547 28.3142 1.66547 19.9867V8.32826C1.66547 7.88654 1.84094 7.46292 2.15328 7.15058C2.46562 6.83824 2.88925 6.66276 3.33096 6.66276C6.66195 6.66276 10.8257 4.66417 13.7237 2.13261C14.0765 1.83116 14.5253 1.66553 14.9894 1.66553C15.4535 1.66553 15.9024 1.83116 16.2552 2.13261C19.1698 4.68082 23.3169 6.66276 26.6479 6.66276C27.0896 6.66276 27.5132 6.83824 27.8256 7.15058C28.1379 7.46292 28.3134 7.88654 28.3134 8.32826V19.9867Z" stroke="#E7000B" stroke-width="3.33099" stroke-linecap="round" stroke-linejoin="round"/>
</svg>
