<svg width="40" height="40" viewBox="0 0 40 40" fill="none" xmlns="http://www.w3.org/2000/svg">
<path d="M33.3099 21.6515C33.3099 29.979 27.4807 34.1427 20.5522 36.5577C20.1894 36.6807 19.7953 36.6748 19.4363 36.5411C12.4912 34.1427 6.66199 29.979 6.66199 21.6515V9.99305C6.66199 9.55134 6.83746 9.12771 7.1498 8.81537C7.46214 8.50303 7.88577 8.32756 8.32748 8.32756C11.6585 8.32756 15.8222 6.32896 18.7202 3.79741C19.073 3.49595 19.5219 3.33032 19.986 3.33032C20.45 3.33032 20.8989 3.49595 21.2517 3.79741C24.1663 6.34562 28.3134 8.32756 31.6444 8.32756C32.0861 8.32756 32.5098 8.50303 32.8221 8.81537C33.1345 9.12771 33.3099 9.55134 33.3099 9.99305V21.6515Z" stroke="#E7000B" stroke-width="3.33099" stroke-linecap="round" stroke-linejoin="round"/>
</svg>
