<svg width="34" height="37" viewBox="0 0 34 37" fill="none" xmlns="http://www.w3.org/2000/svg">
<path d="M3.3367 21.6558C3.02153 21.6569 2.71253 21.5685 2.44559 21.401C2.17864 21.2334 1.96472 20.9935 1.82868 20.7092C1.69264 20.4249 1.64005 20.1079 1.67704 19.7949C1.71402 19.4819 1.83906 19.1858 2.03762 18.9411L18.526 1.953C18.6497 1.81024 18.8183 1.71376 19.004 1.67941C19.1897 1.64506 19.3816 1.67488 19.5482 1.76397C19.7148 1.85306 19.8461 1.99613 19.9206 2.16969C19.9951 2.34326 20.0084 2.537 19.9584 2.71913L16.7606 12.7454C16.6663 12.9978 16.6346 13.2692 16.6683 13.5365C16.702 13.8038 16.8 14.059 16.9539 14.28C17.1079 14.5011 17.3132 14.6816 17.5522 14.8059C17.7912 14.9302 18.0568 14.9947 18.3262 14.9938H29.9846C30.2998 14.9928 30.6088 15.0811 30.8758 15.2487C31.1427 15.4162 31.3566 15.6561 31.4927 15.9404C31.6287 16.2247 31.6813 16.5418 31.6443 16.8548C31.6073 17.1678 31.4823 17.4638 31.2837 17.7086L14.7953 34.6966C14.6716 34.8394 14.5031 34.9359 14.3173 34.9702C14.1316 35.0046 13.9397 34.9748 13.7731 34.8857C13.6066 34.7966 13.4753 34.6535 13.4007 34.48C13.3262 34.3064 13.3129 34.1126 13.363 33.9305L16.5607 23.9042C16.655 23.6519 16.6867 23.3804 16.653 23.1131C16.6193 22.8458 16.5213 22.5907 16.3674 22.3696C16.2135 22.1485 16.0082 21.9681 15.7692 21.8437C15.5302 21.7194 15.2646 21.6549 14.9952 21.6558H3.3367Z" stroke="#E7000B" stroke-width="3.33099" stroke-linecap="round" stroke-linejoin="round"/>
</svg>
