<svg width="40" height="40" viewBox="0 0 40 40" fill="none" xmlns="http://www.w3.org/2000/svg">
<path d="M6.66196 23.3169C6.34679 23.318 6.03778 23.2296 5.77084 23.0621C5.5039 22.8945 5.28998 22.6547 5.15394 22.3704C5.01789 22.0861 4.96531 21.769 5.00229 21.456C5.03928 21.143 5.16431 20.8469 5.36287 20.6022L21.8513 3.61413C21.975 3.47137 22.1435 3.37489 22.3292 3.34055C22.515 3.3062 22.7069 3.33601 22.8734 3.4251C23.04 3.51419 23.1713 3.65726 23.2459 3.83083C23.3204 4.00439 23.3337 4.19814 23.2836 4.38026L20.0859 14.4065C19.9916 14.6589 19.9599 14.9304 19.9936 15.1977C20.0272 15.465 20.1253 15.7201 20.2792 15.9412C20.4331 16.1623 20.6384 16.3427 20.8774 16.467C21.1164 16.5914 21.382 16.6558 21.6514 16.655H33.3099C33.6251 16.6539 33.9341 16.7423 34.201 16.9098C34.468 17.0774 34.6819 17.3172 34.8179 17.6015C34.954 17.8858 35.0065 18.2029 34.9696 18.5159C34.9326 18.8289 34.8075 19.125 34.609 19.3697L18.1206 36.3578C17.9969 36.5005 17.8283 36.597 17.6426 36.6314C17.4569 36.6657 17.265 36.6359 17.0984 36.5468C16.9318 36.4577 16.8005 36.3146 16.726 36.1411C16.6515 35.9675 16.6382 35.7738 16.6882 35.5917L19.886 25.5654C19.9803 25.313 20.012 25.0415 19.9783 24.7742C19.9446 24.507 19.8466 24.2518 19.6926 24.0307C19.5387 23.8096 19.3334 23.6292 19.0944 23.5049C18.8554 23.3806 18.5898 23.3161 18.3204 23.3169H6.66196Z" stroke="#E7000B" stroke-width="3.33099" stroke-linecap="round" stroke-linejoin="round"/>
</svg>
