<svg width="40" height="40" viewBox="0 0 40 40" fill="none" xmlns="http://www.w3.org/2000/svg">
<path d="M9.99295 3.33105L4.99646 9.99304V33.31C4.99646 34.1934 5.3474 35.0407 5.97208 35.6653C6.59677 36.29 7.44402 36.641 8.32745 36.641H31.6444C32.5278 36.641 33.3751 36.29 33.9998 35.6653C34.6244 35.0407 34.9754 34.1934 34.9754 33.31V9.99304L29.9789 3.33105H9.99295Z" stroke="#E7000B" stroke-width="3.33099" stroke-linecap="round" stroke-linejoin="round"/>
<path d="M4.99646 9.99292H34.9754" stroke="#E7000B" stroke-width="3.33099" stroke-linecap="round" stroke-linejoin="round"/>
<path d="M26.6479 16.655C26.6479 18.4219 25.9461 20.1164 24.6967 21.3658C23.4473 22.6151 21.7528 23.317 19.986 23.317C18.2191 23.317 16.5246 22.6151 15.2752 21.3658C14.0259 20.1164 13.324 18.4219 13.324 16.655" stroke="#E7000B" stroke-width="3.33099" stroke-linecap="round" stroke-linejoin="round"/>
</svg>
